<?xml version="1.0" standalone="no"?>
<!DOCTYPE svg PUBLIC "-//W3C//DTD SVG 20010904//EN"
 "http://www.w3.org/TR/2001/REC-SVG-20010904/DTD/svg10.dtd">
<svg version="1.0" xmlns="http://www.w3.org/2000/svg"
 width="784.000000pt" height="222.000000pt" viewBox="0 0 784.000000 222.000000"
 preserveAspectRatio="xMidYMid meet">

<g transform="translate(0.000000,222.000000) scale(0.100000,-0.100000)"
fill="#000000" stroke="none">
<path d="M2010 1060 c0 -580 3 -880 10 -880 7 0 10 300 10 880 0 580 -3 880
-10 880 -7 0 -10 -300 -10 -880z"/>
<path d="M2697 1534 c-9 -9 -9 -882 0 -933 l6 -33 231 4 c206 4 238 7 296 27
203 70 313 228 314 451 1 145 -37 251 -122 342 -55 59 -110 93 -195 120 -52
17 -98 21 -292 25 -126 3 -234 2 -238 -3z m428 -235 c55 -15 101 -52 127 -102
19 -35 23 -58 23 -137 0 -122 -25 -179 -99 -225 -44 -27 -57 -30 -135 -30
l-86 0 -3 240 c-1 132 0 245 2 252 7 16 115 17 171 2z"/>
<path d="M5300 1060 l0 -480 218 0 c243 0 307 10 403 62 176 93 263 311 215
539 -38 177 -161 302 -337 344 -47 11 -123 15 -281 15 l-218 0 0 -480z m488
216 c130 -90 129 -348 -1 -434 -35 -24 -52 -27 -134 -30 l-93 -4 0 252 0 252
93 -4 c84 -3 98 -6 135 -32z"/>
<path d="M765 1015 c-86 -261 -155 -483 -153 -492 4 -19 18 -26 34 -15 16 10
327 959 319 972 -3 5 -15 10 -25 10 -17 0 -42 -68 -175 -475z"/>
<path d="M325 1170 c-126 -87 -231 -165 -232 -172 -2 -7 57 -53 129 -103 73
-49 181 -123 241 -164 99 -69 109 -73 124 -58 14 13 14 19 3 32 -7 9 -103 77
-212 152 -109 75 -198 139 -198 142 0 3 95 71 211 149 149 102 209 149 207
160 -7 38 -49 17 -273 -138z"/>
<path d="M984 1315 c-3 -8 -3 -19 0 -24 4 -5 97 -72 207 -147 110 -76 202
-140 203 -143 2 -3 -90 -71 -205 -150 -203 -139 -235 -169 -195 -184 8 -3 64
28 128 71 280 190 348 238 353 251 3 8 0 20 -7 27 -29 28 -453 314 -465 314
-8 0 -16 -7 -19 -15z"/>
<path d="M3793 1280 c-70 -18 -147 -52 -157 -68 -7 -12 62 -155 72 -150 99 51
132 62 196 65 89 5 131 -16 142 -72 3 -20 4 -38 1 -41 -2 -3 -26 0 -51 7 -108
27 -262 -5 -329 -69 -68 -64 -89 -180 -47 -261 75 -148 294 -171 425 -44 20
19 38 34 40 32 1 -2 10 -21 18 -41 22 -52 65 -72 154 -71 39 0 76 4 82 7 7 5
11 46 11 108 0 95 -1 101 -25 120 -24 19 -25 24 -25 137 0 136 -15 198 -61
254 -79 96 -270 133 -446 87z m240 -402 c25 -13 22 -64 -7 -93 -28 -28 -95
-48 -131 -39 -27 7 -65 48 -65 70 0 23 50 73 78 77 34 6 101 -2 125 -15z"/>
<path d="M4813 1281 c-53 -18 -123 -65 -123 -82 0 -6 -4 -7 -10 -4 -5 3 -10
26 -10 51 l0 44 -110 0 -110 0 0 -355 0 -355 125 0 125 0 0 206 0 207 44 43
c51 52 89 58 133 20 l28 -24 3 -226 3 -226 125 0 124 0 0 258 c0 141 -5 277
-11 302 -15 65 -53 118 -102 141 -55 24 -163 25 -234 0z"/>
<path d="M6455 1283 c-118 -43 -200 -132 -231 -253 -46 -181 32 -353 195 -428
46 -21 75 -27 157 -30 119 -5 186 11 260 60 45 31 120 115 111 125 -3 2 -49
17 -103 32 -95 28 -100 28 -115 11 -41 -48 -132 -64 -189 -35 -33 17 -60 52
-60 77 0 17 17 18 249 18 l249 0 7 31 c11 49 -5 144 -35 208 -35 73 -93 132
-168 168 -50 24 -71 28 -167 30 -86 3 -121 0 -160 -14z m203 -176 c25 -12 52
-55 52 -82 0 -13 -18 -15 -115 -15 -126 0 -130 2 -101 58 13 25 38 43 76 55
19 6 58 -1 88 -16z"/>
<path d="M6990 1288 c0 -2 54 -160 119 -353 l119 -350 138 -3 139 -2 115 341
c63 188 116 348 118 355 3 11 -19 14 -112 14 l-115 0 -10 -37 c-6 -21 -33
-130 -62 -243 -28 -113 -55 -209 -59 -213 -4 -5 -35 105 -70 242 l-62 251
-129 0 c-71 0 -129 -1 -129 -2z"/>
</g>
</svg>
